<svg width="140" height="16" viewBox="0 0 140 16" fill="none" xmlns="http://www.w3.org/2000/svg">
<path d="M133.956 15.9239C133.775 15.9239 133.596 15.9036 133.419 15.8632C133.242 15.8227 133.083 15.7701 132.942 15.7054L133.154 15.0561C133.523 15.2017 133.858 15.2543 134.156 15.2139C134.459 15.1734 134.726 15.0318 134.958 14.7891C135.19 14.5463 135.387 14.1903 135.548 13.721L135.961 12.5558L132.641 3.1071H133.413L136.291 11.4756H136.35L139.228 3.1071H140L136.179 14.0123C136.034 14.433 135.851 14.785 135.631 15.0682C135.41 15.3514 135.159 15.5638 134.876 15.7054C134.597 15.8511 134.29 15.9239 133.956 15.9239Z" fill="#00080E"/>
<path d="M119.643 12.4284V3.1071H120.345V4.515H120.416C120.589 4.0457 120.887 3.6735 121.312 3.39839C121.737 3.12328 122.248 2.98573 122.845 2.98573C123.502 2.98573 124.03 3.14756 124.431 3.47121C124.836 3.79487 125.127 4.23383 125.304 4.78809H125.369C125.546 4.24192 125.862 3.80498 126.318 3.47728C126.778 3.14958 127.344 2.98573 128.016 2.98573C128.893 2.98573 129.561 3.27095 130.021 3.84139C130.485 4.40779 130.717 5.18457 130.717 6.17172V12.4284H129.998V6.17172C129.998 5.39494 129.817 4.78404 129.455 4.33901C129.094 3.89399 128.563 3.67147 127.863 3.67147C127.116 3.67147 126.542 3.91219 126.141 4.39363C125.74 4.87507 125.54 5.48799 125.54 6.2324V12.4284H124.82V6.12317C124.82 5.39899 124.644 4.81034 124.29 4.35722C123.936 3.90006 123.405 3.67147 122.698 3.67147C122.218 3.67147 121.803 3.78475 121.453 4.01131C121.108 4.23787 120.838 4.54939 120.646 4.94587C120.457 5.34235 120.363 5.79749 120.363 6.31129V12.4284H119.643Z" fill="#00080E"/>
<path d="M113.576 12.6226C112.758 12.6226 112.046 12.4142 111.441 11.9975C110.836 11.5808 110.368 11.0104 110.038 10.2862C109.707 9.56201 109.542 8.73669 109.542 7.81023C109.542 6.87971 109.707 6.05034 110.038 5.32212C110.372 4.59389 110.83 4.0194 111.411 3.59865C111.993 3.1779 112.658 2.96752 113.405 2.96752C113.912 2.96752 114.391 3.07271 114.843 3.28309C115.299 3.48942 115.7 3.7888 116.046 4.18123C116.396 4.57367 116.669 5.04701 116.866 5.60127C117.066 6.15553 117.167 6.77857 117.167 7.47038V7.9316H109.996V7.25799H116.447C116.447 6.58236 116.314 5.97348 116.046 5.43135C115.779 4.88923 115.415 4.45836 114.955 4.13875C114.495 3.81914 113.978 3.65934 113.405 3.65934C112.803 3.65934 112.266 3.8333 111.795 4.18123C111.327 4.52512 110.955 4.99037 110.68 5.577C110.409 6.16363 110.267 6.81903 110.256 7.54321V7.84664C110.256 8.62341 110.387 9.32129 110.651 9.94029C110.918 10.5552 111.299 11.0427 111.795 11.4028C112.29 11.7588 112.884 11.9368 113.576 11.9368C114.071 11.9368 114.493 11.8519 114.843 11.682C115.197 11.508 115.486 11.2976 115.71 11.0508C115.934 10.804 116.103 10.5653 116.217 10.3347L116.872 10.6078C116.734 10.9193 116.52 11.2309 116.229 11.5424C115.942 11.8499 115.576 12.1068 115.132 12.3131C114.692 12.5194 114.173 12.6226 113.576 12.6226Z" fill="#00080E"/>
<path d="M103.097 12.6226C102.37 12.6226 101.735 12.4163 101.193 12.0036C100.65 11.5909 100.229 11.0225 99.9306 10.2983C99.6358 9.5701 99.4884 8.73467 99.4884 7.79202C99.4884 6.85746 99.6377 6.02809 99.9365 5.30391C100.239 4.57569 100.662 4.00524 101.204 3.59258C101.747 3.17587 102.38 2.96752 103.103 2.96752C103.622 2.96752 104.072 3.07069 104.453 3.27702C104.839 3.4793 105.161 3.74834 105.42 4.08414C105.684 4.41993 105.884 4.78809 106.022 5.18861H106.093V0H106.806V12.4284H106.11V10.3954H106.022C105.876 10.796 105.674 11.1661 105.415 11.506C105.155 11.8418 104.833 12.1128 104.447 12.3192C104.062 12.5214 103.612 12.6226 103.097 12.6226ZM103.162 11.9368C103.775 11.9368 104.3 11.7568 104.736 11.3967C105.177 11.0326 105.513 10.539 105.745 9.91601C105.981 9.28893 106.099 8.57891 106.099 7.78595C106.099 6.99299 105.981 6.28702 105.745 5.66803C105.513 5.04499 105.177 4.55546 104.736 4.19944C104.3 3.83937 103.775 3.65934 103.162 3.65934C102.541 3.65934 102.008 3.84139 101.564 4.20551C101.124 4.56557 100.786 5.05713 100.55 5.68016C100.318 6.3032 100.202 7.00513 100.202 7.78595C100.202 8.56677 100.318 9.27072 100.55 9.89781C100.786 10.5249 101.124 11.0225 101.564 11.3907C102.008 11.7548 102.541 11.9368 103.162 11.9368Z" fill="#00080E"/>
<path d="M93.2762 12.6287C92.7534 12.6287 92.2738 12.5214 91.8374 12.307C91.405 12.0926 91.0571 11.7791 90.7937 11.3664C90.5343 10.9537 90.4045 10.4521 90.4045 9.8614C90.4045 9.47301 90.4714 9.13115 90.605 8.83581C90.7387 8.54048 90.9451 8.28559 91.2242 8.07117C91.5033 7.85675 91.861 7.68076 92.2974 7.54321C92.7337 7.40161 93.2546 7.29237 93.86 7.21551C94.3199 7.15887 94.7307 7.10425 95.0924 7.05166C95.4541 6.99502 95.7371 6.90803 95.9415 6.79071C96.1499 6.67338 96.254 6.49537 96.254 6.25668V5.86829C96.254 5.18861 96.0457 4.64851 95.629 4.24799C95.2123 3.84746 94.6384 3.6472 93.9072 3.6472C93.2585 3.6472 92.7121 3.79487 92.2679 4.0902C91.8276 4.38149 91.519 4.75774 91.3421 5.21895L90.664 4.95801C90.837 4.51298 91.0866 4.1428 91.4129 3.84746C91.7431 3.55212 92.1205 3.33163 92.545 3.18599C92.9735 3.04034 93.4217 2.96752 93.8895 2.96752C94.2944 2.96752 94.6796 3.02618 95.0452 3.14351C95.4147 3.26083 95.743 3.43885 96.03 3.67754C96.3209 3.91624 96.5508 4.22169 96.7199 4.59389C96.8889 4.96205 96.9734 5.40303 96.9734 5.91684V12.4284H96.254V10.7474H96.201C96.0437 11.0953 95.8275 11.4129 95.5523 11.7002C95.2811 11.9834 94.9528 12.2099 94.5676 12.3798C94.1863 12.5457 93.7558 12.6287 93.2762 12.6287ZM93.347 11.9429C93.9131 11.9429 94.4143 11.8013 94.8506 11.5181C95.2909 11.2309 95.6349 10.8384 95.8825 10.3408C96.1302 9.84319 96.254 9.27881 96.254 8.64769V7.27619C96.1636 7.35711 96.0319 7.42993 95.859 7.49466C95.6899 7.55534 95.4973 7.60996 95.2811 7.65851C95.0688 7.70301 94.8447 7.74347 94.6089 7.77988C94.3769 7.81225 94.1509 7.84259 93.9308 7.87091C93.2703 7.95182 92.7318 8.07724 92.3151 8.24716C91.9023 8.41303 91.5996 8.6315 91.407 8.90257C91.2183 9.17363 91.1239 9.50133 91.1239 9.88567C91.1239 10.5208 91.3362 11.0225 91.7608 11.3907C92.1853 11.7588 92.7141 11.9429 93.347 11.9429Z" fill="#00080E"/>
<path d="M85.0621 12.6226C84.2916 12.6226 83.6135 12.4142 83.0278 11.9975C82.4421 11.5768 81.9841 11.0023 81.6539 10.2741C81.3276 9.54583 81.1644 8.72051 81.1644 7.79809C81.1644 6.87567 81.3295 6.05034 81.6598 5.32212C81.99 4.59389 82.448 4.0194 83.0337 3.59865C83.6194 3.1779 84.2936 2.96752 85.0563 2.96752C85.6302 2.96752 86.153 3.08889 86.6248 3.33163C87.1004 3.57438 87.4935 3.91219 87.8041 4.34508C88.1186 4.77797 88.3191 5.27964 88.4056 5.85008H87.6744C87.5564 5.21895 87.2616 4.69706 86.7899 4.2844C86.3221 3.86769 85.7462 3.65934 85.0621 3.65934C84.4489 3.65934 83.9025 3.83735 83.4229 4.19337C82.9433 4.54534 82.5659 5.03285 82.2907 5.65589C82.0155 6.27488 81.8779 6.9849 81.8779 7.78595C81.8779 8.57486 82.0116 9.28286 82.2789 9.90994C82.5462 10.533 82.9197 11.0266 83.3993 11.3907C83.8789 11.7548 84.4332 11.9368 85.0621 11.9368C85.5064 11.9368 85.9113 11.8458 86.2769 11.6638C86.6464 11.4817 86.955 11.2228 87.2026 10.887C87.4503 10.5512 87.6134 10.1588 87.6921 9.70968H88.4232C88.3368 10.2842 88.1402 10.7899 87.8336 11.2268C87.527 11.6638 87.1358 12.0056 86.6602 12.2524C86.1845 12.4992 85.6518 12.6226 85.0621 12.6226Z" fill="#00080E"/>
<path d="M70.8806 12.4284H70.1023L74.4599 0H75.309L79.6667 12.4284H78.8883L74.914 0.977037H74.855L70.8806 12.4284ZM71.9833 7.74954H77.7857V8.45349H71.9833V7.74954Z" fill="#00080E"/>
<path d="M57.2173 5.50733C57.2173 4.9377 57.4 4.49908 57.7653 4.19148C58.1306 3.88387 58.673 3.73007 59.3926 3.73007V4.73832C59.2265 4.92061 59.0882 5.11428 58.9775 5.31935L59.0937 5.38771C59.4258 4.86364 59.8465 4.4592 60.3557 4.17439C60.876 3.87818 61.4516 3.73007 62.0826 3.73007C62.6361 3.73007 63.1232 3.86109 63.5439 4.12312C63.9756 4.38515 64.3132 4.74972 64.5568 5.21682C64.8003 5.67252 64.9221 6.1852 64.9221 6.75483V11.2151C64.9221 11.705 64.7339 12.0581 64.3575 12.2746C63.9811 12.4797 63.411 12.5822 62.6472 12.5822V7.1137C62.6472 6.72635 62.5254 6.40166 62.2819 6.13963C62.0494 5.87759 61.7173 5.74658 61.2856 5.74658C60.7542 5.74658 60.3225 5.92316 59.9904 6.27634C59.6583 6.62951 59.4922 7.07383 59.4922 7.60928V11.2151C59.4922 11.705 59.304 12.0581 58.9277 12.2746C58.5623 12.4797 57.9922 12.5822 57.2173 12.5822V5.50733Z" fill="#01CBFB"/>
<path d="M50.9415 12.5822C50.3991 12.5822 49.8899 12.474 49.4139 12.2575C48.9489 12.0296 48.5726 11.705 48.2847 11.2834C47.9969 10.8505 47.853 10.3321 47.853 9.72833C47.853 9.12451 48.008 8.60614 48.3179 8.17322C48.6279 7.72891 49.0375 7.39282 49.5467 7.16497C50.067 6.93711 50.6316 6.82319 51.2404 6.82319C51.7496 6.82319 52.198 6.90294 52.5854 7.06243C52.984 7.22193 53.3548 7.45548 53.698 7.76309L53.781 7.66055C53.5485 7.44409 53.3659 7.29029 53.233 7.19915V6.97699C53.233 6.54407 53.0781 6.20229 52.7681 5.95165C52.4692 5.68961 52.043 5.5586 51.4895 5.5586C51.0024 5.5586 50.5707 5.64974 50.1943 5.83202C49.8179 6.01431 49.5135 6.28204 49.281 6.63521C49.0154 6.56685 48.7884 6.44153 48.6002 6.25925C48.4231 6.06557 48.3345 5.85481 48.3345 5.62696C48.3345 5.27378 48.484 4.95479 48.7829 4.66997C49.0818 4.37376 49.4858 4.1459 49.9951 3.98641C50.5153 3.81552 51.0854 3.73007 51.7054 3.73007C52.912 3.73007 53.8419 4.01489 54.495 4.58452C55.1482 5.15416 55.4747 5.92886 55.4747 6.90863V11.0613C55.4747 11.5967 55.3031 11.9841 54.96 12.2233C54.6279 12.4626 54.0965 12.5822 53.3659 12.5822V11.9157C53.5319 11.7562 53.6648 11.6138 53.7644 11.4885L53.6814 11.4031C53.3161 11.7904 52.9341 12.0866 52.5356 12.2917C52.1371 12.4854 51.6057 12.5822 50.9415 12.5822ZM51.5725 10.9075C52.1039 10.9075 52.519 10.8049 52.8179 10.5999C53.1168 10.3948 53.2662 10.0986 53.2662 9.71123C53.2662 9.33528 53.1113 9.03907 52.8013 8.8226C52.5024 8.60614 52.0928 8.49791 51.5725 8.49791C51.1076 8.49791 50.7367 8.60614 50.46 8.8226C50.1943 9.03907 50.0615 9.33528 50.0615 9.71123C50.0615 10.0986 50.1943 10.3948 50.46 10.5999C50.7367 10.8049 51.1076 10.9075 51.5725 10.9075Z" fill="#01CBFB"/>
<path d="M46.1014 5.74658C45.4372 5.74658 44.9003 5.92316 44.4907 6.27634C44.0811 6.62951 43.8764 7.07383 43.8764 7.60928V11.2151C43.8764 11.705 43.6882 12.0581 43.3118 12.2746C42.9465 12.4797 42.3764 12.5822 41.6015 12.5822V5.50733C41.6015 4.9377 41.7841 4.49908 42.1494 4.19148C42.5147 3.88387 43.0572 3.73007 43.7767 3.73007V4.73832C43.6107 4.92061 43.4723 5.11428 43.3616 5.31935L43.4778 5.38771C44.1752 4.28262 45.0442 3.73007 46.0848 3.73007C46.583 3.73007 46.9594 3.86678 47.214 4.14021C47.4686 4.41363 47.5959 4.76111 47.5959 5.18264C47.5959 5.50164 47.5128 5.78076 47.3468 6.02C47.0368 5.83772 46.6217 5.74658 46.1014 5.74658Z" fill="#01CBFB"/>
<path d="M33.9502 16C33.4852 16 33.1199 15.8291 32.8542 15.4873C32.5886 15.1569 32.4557 14.6671 32.4557 14.0177C32.7767 14.086 33.0701 14.1202 33.3358 14.1202C33.6125 14.1202 33.8395 14.0746 34.0166 13.9835C34.1937 13.9037 34.3598 13.7499 34.5147 13.5221C34.6808 13.2942 34.8634 12.9525 35.0627 12.4967L35.3118 11.9157L32.1236 3.91805C32.2011 3.86109 32.345 3.81552 32.5553 3.78134C32.7767 3.74716 32.9594 3.73007 33.1033 3.73007C33.4465 3.73007 33.762 3.80412 34.0498 3.95223C34.3487 4.10033 34.5479 4.3111 34.6476 4.58452L36.2749 9.04476L35.9926 9.88213L36.142 9.93339L38.1679 4.58452C38.2785 4.29971 38.4723 4.08894 38.749 3.95223C39.0368 3.80412 39.3579 3.73007 39.7121 3.73007C39.856 3.73007 40.0332 3.74716 40.2435 3.78134C40.4649 3.81552 40.6143 3.86109 40.6918 3.91805L36.9889 13.1803C36.6015 14.1487 36.1697 14.8607 35.6937 15.3164C35.2288 15.7721 34.6476 16 33.9502 16Z" fill="#01CBFB"/>
<path d="M20.0182 5.50733C20.0182 4.9377 20.1953 4.49908 20.5495 4.19148C20.9038 3.88387 21.4407 3.73007 22.1602 3.73007V4.73832C21.9942 4.92061 21.8558 5.11428 21.7451 5.31935L21.8613 5.38771C22.2156 4.84086 22.5809 4.43072 22.9572 4.1573C23.3447 3.87248 23.8041 3.73007 24.3355 3.73007C25.2764 3.73007 25.9296 4.21426 26.2949 5.18264C26.5716 4.72693 26.9258 4.37376 27.3576 4.12312C27.7893 3.86109 28.2764 3.73007 28.8188 3.73007C29.5716 3.73007 30.1694 4.01489 30.6122 4.58452C31.066 5.15416 31.293 5.87759 31.293 6.75483V11.2151C31.293 11.705 31.1103 12.0581 30.745 12.2746C30.3797 12.4797 29.8151 12.5822 29.0513 12.5822V6.9599C29.0513 6.57255 28.9683 6.26495 28.8022 6.03709C28.6362 5.80924 28.376 5.69531 28.0218 5.69531C27.6675 5.69531 27.3687 5.82633 27.1251 6.08836C26.8816 6.339 26.7598 6.76623 26.7598 7.37004V11.2151C26.7598 11.705 26.5771 12.0581 26.2118 12.2746C25.8576 12.4797 25.3041 12.5822 24.5513 12.5822V6.9599C24.5513 6.57255 24.4683 6.26495 24.3023 6.03709C24.1362 5.80924 23.8816 5.69531 23.5384 5.69531C22.686 5.69531 22.2598 6.28203 22.2598 7.45548V11.2151C22.2598 11.705 22.0772 12.0581 21.7119 12.2746C21.3466 12.4797 20.782 12.5822 20.0182 12.5822V5.50733Z" fill="#01CBFB"/>
<path d="M12.3669 16C11.9019 16 11.5366 15.8291 11.2709 15.4873C11.0052 15.1569 10.8724 14.6671 10.8724 14.0177C11.1934 14.086 11.4868 14.1202 11.7525 14.1202C12.0292 14.1202 12.2562 14.0746 12.4333 13.9835C12.6104 13.9037 12.7765 13.7499 12.9314 13.5221C13.0975 13.2942 13.2801 12.9525 13.4794 12.4967L13.7285 11.9157L10.5403 3.91805C10.6178 3.86109 10.7617 3.81552 10.972 3.78134C11.1934 3.74716 11.3761 3.73007 11.52 3.73007C11.8632 3.73007 12.1787 3.80412 12.4665 3.95223C12.7654 4.10033 12.9646 4.3111 13.0643 4.58452L14.6916 9.04476L14.4093 9.88213L14.5587 9.93339L16.5845 4.58452C16.6952 4.29971 16.889 4.08894 17.1657 3.95223C17.4535 3.80412 17.7746 3.73007 18.1288 3.73007C18.2727 3.73007 18.4498 3.74716 18.6602 3.78134C18.8816 3.81552 19.031 3.86109 19.1085 3.91805L15.4056 13.1803C15.0181 14.1487 14.5864 14.8607 14.1104 15.3164C13.6454 15.7721 13.0643 16 12.3669 16Z" fill="#01CBFB"/>
<path d="M1.11254 12.4284C0.769365 12.4284 0.49815 12.3316 0.298889 12.1379C0.0996288 11.9442 0 11.6879 0 11.3689C0 11.0727 0.0774877 10.8277 0.232468 10.634L7.50548 1.95281L7.33943 1.8161L6.64202 2.60219H2.12545C1.56087 2.60219 1.12914 2.41991 0.830251 2.05534C0.54243 1.69078 0.398519 1.16102 0.398519 0.466065H9.31542C9.66966 0.466065 9.94089 0.557207 10.1291 0.73949C10.3283 0.921773 10.428 1.1838 10.428 1.52559C10.428 1.8218 10.3505 2.06674 10.1955 2.26041L3.00551 10.9416L3.17156 11.0784L3.85237 10.2923H8.75086C9.30436 10.2923 9.72502 10.4745 10.0128 10.8391C10.3117 11.2037 10.4612 11.7334 10.4612 12.4284H1.11254Z" fill="#01CBFB"/>
</svg>
