<svg width="58" height="53" viewBox="0 0 58 53" fill="none" xmlns="http://www.w3.org/2000/svg">
<path fill-rule="evenodd" clip-rule="evenodd" d="M16.2578 17.8002C15.7593 15.9823 15.2692 13.9048 15 12.7272C16.1363 13.004 18.1393 13.5211 19.8969 14.0442L16.2578 17.8002ZM16.6007 19.0001C16.7846 19.6133 16.9628 20.1526 17.1242 20.5571C17.6882 21.9707 19.6507 23.7536 21.0657 24.8658C21.7833 25.0509 22.4738 25.1259 23.08 25.1918C24.2031 25.3138 25.0366 25.4044 25.2166 26.1048C25.4518 27.02 25.227 27.9124 24.8896 28.5718L27.3079 31.0677L29.6056 28.7316C29.4424 28.1442 28.6542 27.3014 28.1282 27.7148C27.7033 28.0487 28.1252 28.7903 28.5156 28.9888C28.0962 29.3432 27.4906 29.1575 27.1295 28.7847C26.5213 28.157 27.2351 26.9757 27.5638 26.6365C26.5915 26.3741 26.3344 25.0588 26.3274 24.434C26.9328 24.4413 28.2071 24.7066 28.4614 25.7101C28.7901 25.3709 29.9346 24.6342 30.5428 25.2619C30.9039 25.6346 31.0839 26.2596 30.7406 26.6925C30.5482 26.2895 29.8044 25.8802 29.4809 26.3187C29.0791 26.8633 29.9269 27.6544 30.4966 27.819L32.7751 25.4674L30.3434 22.9576C29.7017 23.3151 28.8236 23.5585 27.9227 23.3119C27.244 23.1262 27.1562 22.2658 27.038 21.1067C26.9715 20.4547 26.8953 19.7082 26.699 18.9341C25.6177 17.4818 23.9329 15.5269 22.5915 14.9568C22.1937 14.7877 21.661 14.5986 21.0553 14.4026L16.6007 19.0001ZM22.0035 25.593L24.543 28.214C24.8011 27.6525 24.9496 26.9397 24.7667 26.228C24.635 25.7157 24.1513 25.7061 23.3921 25.6911C22.9994 25.6833 22.533 25.674 22.0035 25.593ZM27.5218 21.4289C27.514 21.0095 27.5046 20.5087 27.4183 19.9386L29.9979 22.601C29.4491 22.877 28.745 23.04 28.042 22.8475C27.5457 22.7117 27.5364 22.2125 27.5218 21.4289ZM23.2101 18.14C24.029 18.9853 24.029 20.3557 23.2101 21.2009C22.3912 22.0461 21.0634 22.0461 20.2444 21.2009C19.4255 20.3557 19.4255 18.9853 20.2444 18.14C21.0634 17.2948 22.3912 17.2948 23.2101 18.14ZM33.3886 24.9114L30.9647 22.4097C33.0051 20.3038 34.7852 21.2021 35.4201 21.9146L37.3823 23.9397C36.4384 22.9655 34.3265 24.1816 33.3886 24.9114ZM24.3661 29.2202L26.79 31.7219C26.0829 32.6899 24.9046 34.8696 25.8485 35.8438L23.8863 33.8186C23.1961 33.1633 22.3257 31.3261 24.3661 29.2202ZM28.4819 31.6531C28.3987 31.5672 28.3987 31.4281 28.4819 31.3423L28.8391 30.9736C28.9223 30.8878 29.0571 30.8878 29.1402 30.9736L35.0933 37.1178C35.1765 37.2036 35.1765 37.3428 35.0933 37.4286L34.7361 37.7973C34.653 37.8831 34.5181 37.8831 34.435 37.7973L28.4819 31.6531ZM31.2798 28.4545C31.1967 28.5403 31.1967 28.6795 31.2798 28.7653L35.3402 32.956C35.4234 33.0418 35.5582 33.0418 35.6413 32.956L35.9985 32.5873C36.0817 32.5015 36.0817 32.3624 35.9985 32.2766L31.9382 28.0858C31.855 28 31.7202 28 31.6371 28.0858L31.2798 28.4545ZM32.6788 27.3214C32.5956 27.2356 32.5956 27.0965 32.6788 27.0106L33.036 26.642C33.1192 26.5561 33.254 26.5561 33.3371 26.642L41.5533 35.1218C41.6364 35.2077 41.6364 35.3468 41.5533 35.4326L41.196 35.8013C41.1129 35.8871 40.9781 35.8871 40.8949 35.8013L32.6788 27.3214ZM29.8809 29.8984C29.7977 29.9842 29.7977 30.1234 29.8809 30.2092L41.5533 42.2563C41.6364 42.3421 41.7712 42.3421 41.8544 42.2563L42.2116 41.8876C42.2947 41.8018 42.2947 41.6627 42.2116 41.5768L30.5392 29.5297C30.456 29.4439 30.3212 29.4439 30.2381 29.5297L29.8809 29.8984Z" fill="#00080E"/>
<path d="M33.4847 17.1508C33.3752 16.9907 33.2766 16.5742 33.7586 16.1898C34.2406 16.5742 34.142 16.9907 34.0325 17.1508C34.5145 16.8569 34.8906 17.2545 35.0184 17.49C34.8906 17.7256 34.5145 18.1232 34.0325 17.8292C34.142 17.9894 34.2406 18.4058 33.7586 18.7902C33.2766 18.4058 33.3752 17.9894 33.4847 17.8292C33.0027 18.1232 32.6266 17.7256 32.4988 17.49C32.6266 17.2545 33.0027 16.8569 33.4847 17.1508Z" fill="#F9B101"/>
<path d="M17.5512 40.8295C17.4062 40.6175 17.2756 40.0661 17.9138 39.5572C18.5519 40.0661 18.4214 40.6175 18.2764 40.8295C18.9145 40.4403 19.4125 40.9667 19.5817 41.2786C19.4125 41.5904 18.9145 42.1168 18.2764 41.7276C18.4214 41.9397 18.5519 42.4911 17.9138 43C17.2756 42.4911 17.4062 41.9397 17.5512 41.7276C16.9131 42.1168 16.4151 41.5904 16.2459 41.2786C16.4151 40.9667 16.9131 40.4403 17.5512 40.8295Z" fill="#F9B101"/>
<path d="M36.7233 10.8663C36.6245 10.7219 36.5357 10.3465 36.9701 10C37.4046 10.3465 37.3158 10.7219 37.217 10.8663C37.6515 10.6013 37.9905 10.9597 38.1057 11.172C37.9905 11.3844 37.6515 11.7428 37.217 11.4778C37.3158 11.6222 37.4046 11.9975 36.9701 12.3441C36.5357 11.9975 36.6245 11.6222 36.7233 11.4778C36.2888 11.7428 35.9498 11.3844 35.8346 11.172C35.9498 10.9597 36.2888 10.6013 36.7233 10.8663Z" fill="#01CBFB"/>
<path d="M36.6289 11.14C36.479 11.1133 36.1946 10.9351 36.2567 10.4357C36.7406 10.3716 36.9133 10.6651 36.9391 10.8199C37.0508 10.3716 37.482 10.377 37.6836 10.4357C37.7405 10.6438 37.7457 11.0888 37.3114 11.204C37.4613 11.2307 37.7457 11.4089 37.6836 11.9084C37.1997 11.9724 37.027 11.679 37.0012 11.5242C36.8895 11.9724 36.4583 11.9671 36.2567 11.9084C36.1998 11.7003 36.1946 11.2553 36.6289 11.14Z" fill="#01CBFB"/>
<path fill-rule="evenodd" clip-rule="evenodd" d="M19.2978 31.9023C18.7682 32.3246 18.8766 32.7822 18.9969 32.9581C18.4674 32.6352 18.0542 33.072 17.9138 33.3307C18.0542 33.5895 18.4674 34.0263 18.9969 33.7034C18.8766 33.8793 18.7682 34.3368 19.2978 34.7592C19.8273 34.3368 19.719 33.8793 19.5986 33.7034C20.1282 34.0263 20.5413 33.5895 20.6817 33.3307C20.5413 33.072 20.1282 32.6352 19.5986 32.9581C19.719 32.7822 19.8273 32.3246 19.2978 31.9023ZM19.2978 33.5792C19.4307 33.5792 19.5385 33.4679 19.5385 33.3307C19.5385 33.1935 19.4307 33.0823 19.2978 33.0823C19.1648 33.0823 19.0571 33.1935 19.0571 33.3307C19.0571 33.4679 19.1648 33.5792 19.2978 33.5792Z" fill="#01CBFB"/>
<path fill-rule="evenodd" clip-rule="evenodd" d="M41.6189 26.5916C41.2387 26.8948 41.3165 27.2232 41.4029 27.3496C41.0227 27.1177 40.7261 27.4313 40.6253 27.6171C40.7261 27.8029 41.0227 28.1165 41.4029 27.8846C41.3165 28.011 41.2387 28.3394 41.6189 28.6426C41.9991 28.3394 41.9213 28.011 41.8349 27.8846C42.2151 28.1165 42.5117 27.8029 42.6125 27.6171C42.5117 27.4313 42.2151 27.1177 41.8349 27.3496C41.9213 27.2232 41.9991 26.8948 41.6189 26.5916ZM41.6189 27.7954C41.7143 27.7954 41.7917 27.7156 41.7917 27.6171C41.7917 27.5186 41.7143 27.4387 41.6189 27.4387C41.5235 27.4387 41.4461 27.5186 41.4461 27.6171C41.4461 27.7156 41.5235 27.7954 41.6189 27.7954Z" fill="#01CBFB"/>
<path d="M28.0275 13.6992C28.0275 14.1645 27.6621 14.5416 27.2113 14.5416C26.7605 14.5416 26.3951 14.1645 26.3951 13.6992C26.3951 13.234 26.7605 12.8568 27.2113 12.8568C27.6621 12.8568 28.0275 13.234 28.0275 13.6992Z" fill="#00080E"/>
<path d="M24.4433 40.4362C24.4433 40.9014 24.0779 41.2786 23.6271 41.2786C23.1764 41.2786 22.811 40.9014 22.811 40.4362C22.811 39.9709 23.1764 39.5938 23.6271 39.5938C24.0779 39.5938 24.4433 39.9709 24.4433 40.4362Z" fill="#00080E"/>
<path d="M41.0511 18.5888C41.0511 18.9428 40.7731 19.2297 40.4301 19.2297C40.0871 19.2297 39.8091 18.9428 39.8091 18.5888C39.8091 18.2348 40.0871 17.9478 40.4301 17.9478C40.7731 17.9478 41.0511 18.2348 41.0511 18.5888Z" fill="#00080E"/>
</svg>
