<svg width="223" height="44" viewBox="0 0 223 44" fill="none" xmlns="http://www.w3.org/2000/svg">
<path fill-rule="evenodd" clip-rule="evenodd" d="M1.71024 10.4002C1.03249 7.97643 0.366066 5.20643 0 3.63631C1.54505 4.00527 4.26868 4.69477 6.65864 5.39223L1.71024 10.4002ZM2.17655 12.0002C2.42664 12.8178 2.66899 13.5368 2.8884 14.0761C3.65525 15.9609 6.32384 18.3381 8.24784 19.8211C9.22362 20.0678 10.1626 20.1679 10.9868 20.2557C12.5139 20.4184 13.6474 20.5392 13.8921 21.4731C14.2119 22.6933 13.9062 23.8832 13.4475 24.7624L16.7357 28.0902L19.86 24.9755C19.6382 24.1923 18.5664 23.0685 17.8511 23.6197C17.2734 24.0649 17.847 25.0537 18.3779 25.3185C17.8077 25.7909 16.9842 25.5433 16.4932 25.0463C15.6662 24.2094 16.6368 22.6343 17.0837 22.182C15.7616 21.8321 15.4121 20.0785 15.4025 19.2454C16.2257 19.255 17.9585 19.6088 18.3042 20.9468C18.7511 20.4945 20.3074 19.5122 21.1344 20.3492C21.6254 20.8461 21.8702 21.6795 21.4033 22.2566C21.1417 21.7193 20.1303 21.1736 19.6904 21.7583C19.1441 22.4844 20.297 23.5392 21.0717 23.7586L24.1698 20.6231L20.8633 17.2768C19.9908 17.7534 18.7967 18.0781 17.5717 17.7492C16.6488 17.5015 16.5295 16.3544 16.3687 14.8089C16.2783 13.9396 16.1748 12.9443 15.9077 11.9121C14.4375 9.97568 12.1466 7.36915 10.3225 6.60901C9.78164 6.38361 9.05729 6.1315 8.23368 5.87009L2.17655 12.0002ZM9.52305 20.7907L12.9762 24.2854C13.3272 23.5367 13.529 22.5863 13.2803 21.6373C13.1013 20.9543 12.4436 20.9415 11.4112 20.9214C10.8773 20.911 10.2431 20.8987 9.52305 20.7907ZM17.0265 15.2385C17.0159 14.6793 17.0032 14.0116 16.8859 13.2514L20.3935 16.8013C19.6473 17.1694 18.6899 17.3866 17.7339 17.13C17.059 16.9489 17.0464 16.2833 17.0265 15.2385ZM11.1637 10.8534C12.2773 11.9804 12.2773 13.8076 11.1637 14.9345C10.0502 16.0615 8.24473 16.0615 7.13117 14.9345C6.01761 13.8076 6.0176 11.9804 7.13117 10.8534C8.24473 9.72642 10.0502 9.72642 11.1637 10.8534ZM25.004 19.8819L21.7081 16.5463C24.4826 13.7384 26.903 14.9362 27.7664 15.8861L30.4345 18.5863C29.151 17.2874 26.2794 18.9088 25.004 19.8819ZM12.7356 25.6269L16.0315 28.9625C15.07 30.2532 13.4679 33.1595 14.7513 34.4584L12.0832 31.7582C11.1447 30.8844 9.9611 28.4348 12.7356 25.6269ZM18.3321 28.8707C18.219 28.7563 18.219 28.5708 18.3321 28.4564L18.8178 27.9648C18.9309 27.8504 19.1142 27.8504 19.2273 27.9648L27.322 36.1571C27.4351 36.2715 27.4351 36.457 27.322 36.5714L26.8363 37.063C26.7232 37.1775 26.5399 37.1775 26.4268 37.063L18.3321 28.8707ZM22.1366 24.606C22.0235 24.7205 22.0235 24.906 22.1366 25.0204L27.6577 30.608C27.7708 30.7225 27.9541 30.7225 28.0672 30.608L28.5529 30.1165C28.666 30.002 28.666 29.8165 28.5529 29.7021L23.0318 24.1144C22.9187 24 22.7354 24 22.6223 24.1144L22.1366 24.606ZM24.0389 23.0952C23.9258 22.9808 23.9258 22.7953 24.0389 22.6809L24.5246 22.1893C24.6377 22.0748 24.821 22.0748 24.934 22.1893L36.106 33.4958C36.219 33.6102 36.219 33.7957 36.106 33.9102L35.6202 34.4018C35.5072 34.5162 35.3238 34.5162 35.2108 34.4018L24.0389 23.0952ZM20.2343 26.5312C20.1213 26.6456 20.1213 26.8312 20.2343 26.9456L36.106 43.0084C36.219 43.1228 36.4023 43.1228 36.5154 43.0084L37.0011 42.5168C37.1142 42.4024 37.1142 42.2169 37.0011 42.1025L21.1295 26.0396C21.0165 25.9252 20.8331 25.9252 20.7201 26.0396L20.2343 26.5312Z" fill="#01CBFB"/>
<path d="M25.1347 9.53443C24.9858 9.32087 24.8517 8.7656 25.5071 8.25305C26.1625 8.7656 26.0285 9.32087 25.8795 9.53443C26.5349 9.14248 27.0463 9.67262 27.2201 9.98668C27.0463 10.3007 26.5349 10.8309 25.8795 10.4389C26.0285 10.6525 26.1625 11.2078 25.5071 11.7203C24.8517 11.2078 24.9858 10.6525 25.1347 10.4389C24.4793 10.8309 23.9679 10.3007 23.7941 9.98668C23.9679 9.67262 24.4793 9.14248 25.1347 9.53443Z" fill="#F9B101"/>
<path d="M3.46902 41.106C3.27181 40.8233 3.09432 40.0881 3.96204 39.4095C4.82976 40.0881 4.65227 40.8233 4.45506 41.106C5.32278 40.5871 5.99987 41.289 6.22994 41.7048C5.99987 42.1206 5.32278 42.8225 4.45506 42.3035C4.65227 42.5863 4.82976 43.3214 3.96204 44C3.09432 43.3214 3.27181 42.5863 3.46902 42.3035C2.6013 42.8225 1.92421 42.1206 1.69413 41.7048C1.92421 41.289 2.6013 40.5871 3.46902 41.106Z" fill="#F9B101"/>
<path d="M29.5384 1.15505C29.4041 0.962538 29.2833 0.462018 29.8741 0C30.4648 0.462018 30.344 0.962538 30.2097 1.15505C30.8005 0.801737 31.2615 1.27961 31.4182 1.56271C31.2615 1.84581 30.8005 2.32368 30.2097 1.97037C30.344 2.16288 30.4648 2.6634 29.8741 3.12542C29.2833 2.6634 29.4041 2.16288 29.5384 1.97037C28.9476 2.32368 28.4866 1.84581 28.3299 1.56271C28.4866 1.27961 28.9476 0.801737 29.5384 1.15505Z" fill="#01CBFB"/>
<path d="M29.4101 1.52002C29.2062 1.48445 28.8196 1.24682 28.9039 0.580883C29.5619 0.495507 29.7967 0.886814 29.8319 1.09314C29.9837 0.495507 30.57 0.502621 30.8442 0.580883C30.9215 0.858355 30.9285 1.45172 30.338 1.6054C30.5419 1.64097 30.9285 1.8786 30.8442 2.54453C30.1862 2.62991 29.9514 2.2386 29.9162 2.03228C29.7644 2.62991 29.1781 2.62279 28.9039 2.54453C28.8266 2.26706 28.8196 1.6737 29.4101 1.52002Z" fill="#01CBFB"/>
<path fill-rule="evenodd" clip-rule="evenodd" d="M5.84392 29.2031C5.12389 29.7662 5.27117 30.3762 5.43481 30.6108C4.71479 30.1802 4.15295 30.7626 3.96204 31.1077C4.15295 31.4527 4.71479 32.0351 5.43481 31.6045C5.27117 31.8391 5.12389 32.4491 5.84392 33.0122C6.56394 32.4491 6.41666 31.8391 6.25302 31.6045C6.97304 32.0351 7.53488 31.4527 7.72579 31.1077C7.53488 30.7626 6.97304 30.1802 6.25302 30.6108C6.41666 30.3762 6.56394 29.7662 5.84392 29.2031ZM5.84392 31.4389C6.02467 31.4389 6.1712 31.2906 6.1712 31.1077C6.1712 30.9247 6.02467 30.7764 5.84392 30.7764C5.66316 30.7764 5.51663 30.9247 5.51663 31.1077C5.51663 31.2906 5.66316 31.4389 5.84392 31.4389Z" fill="#01CBFB"/>
<path fill-rule="evenodd" clip-rule="evenodd" d="M36.1952 22.1221C35.6783 22.5264 35.784 22.9643 35.9015 23.1328C35.3846 22.8236 34.9812 23.2417 34.8441 23.4895C34.9812 23.7372 35.3846 24.1553 35.9015 23.8462C35.784 24.0146 35.6783 24.4526 36.1952 24.8568C36.7122 24.4526 36.6064 24.0146 36.4889 23.8462C37.0059 24.1553 37.4093 23.7372 37.5463 23.4895C37.4093 23.2417 37.0059 22.8236 36.4889 23.1328C36.6064 22.9643 36.7122 22.5264 36.1952 22.1221ZM36.1952 23.7273C36.325 23.7273 36.4302 23.6208 36.4302 23.4895C36.4302 23.3581 36.325 23.2517 36.1952 23.2517C36.0655 23.2517 35.9603 23.3581 35.9603 23.4895C35.9603 23.6208 36.0655 23.7273 36.1952 23.7273Z" fill="#01CBFB"/>
<path d="M17.7142 4.9323C17.7142 5.55262 17.2173 6.05549 16.6044 6.05549C15.9915 6.05549 15.4946 5.55262 15.4946 4.9323C15.4946 4.31197 15.9915 3.8091 16.6044 3.8091C17.2173 3.8091 17.7142 4.31197 17.7142 4.9323Z" fill="white"/>
<path d="M12.8406 40.5816C12.8406 41.2019 12.3438 41.7048 11.7308 41.7048C11.1179 41.7048 10.621 41.2019 10.621 40.5816C10.621 39.9613 11.1179 39.4584 11.7308 39.4584C12.3438 39.4584 12.8406 39.9613 12.8406 40.5816Z" fill="white"/>
<path d="M35.4232 11.4517C35.4232 11.9237 35.0451 12.3063 34.5787 12.3063C34.1124 12.3063 33.7343 11.9237 33.7343 11.4517C33.7343 10.9797 34.1124 10.5971 34.5787 10.5971C35.0451 10.5971 35.4232 10.9797 35.4232 11.4517Z" fill="white"/>
<path d="M215.442 31.7443C215.216 31.7443 214.992 31.7194 214.771 31.6696C214.55 31.6199 214.35 31.5552 214.174 31.4756L214.439 30.6771C214.901 30.8562 215.319 30.9209 215.693 30.8711C216.071 30.8214 216.405 30.6472 216.695 30.3487C216.985 30.0502 217.231 29.6124 217.433 29.0353L217.949 27.6025L213.797 15.9831H214.763L218.362 26.2741H218.436L222.034 15.9831H223L218.222 29.3935C218.04 29.9109 217.811 30.3438 217.536 30.692C217.261 31.0403 216.946 31.3015 216.592 31.4756C216.243 31.6547 215.86 31.7443 215.442 31.7443Z" fill="white"/>
<path d="M197.544 27.4457V15.9831H198.421V17.7144H198.51C198.726 17.1373 199.1 16.6796 199.63 16.3413C200.161 16.003 200.8 15.8338 201.548 15.8338C202.369 15.8338 203.03 16.0328 203.531 16.4308C204.038 16.8288 204.401 17.3686 204.623 18.0502H204.704C204.925 17.3786 205.321 16.8413 205.891 16.4383C206.466 16.0353 207.174 15.8338 208.014 15.8338C209.111 15.8338 209.946 16.1845 210.522 16.886C211.102 17.5826 211.392 18.5378 211.392 19.7517V27.4457H210.492V19.7517C210.492 18.7965 210.266 18.0452 209.814 17.498C209.361 16.9507 208.698 16.6771 207.823 16.6771C206.889 16.6771 206.171 16.9731 205.67 17.5651C205.168 18.1572 204.917 18.9109 204.917 19.8263V27.4457H204.018V19.692C204.018 18.8015 203.797 18.0776 203.354 17.5204C202.912 16.9582 202.248 16.6771 201.363 16.6771C200.764 16.6771 200.245 16.8164 199.807 17.095C199.375 17.3736 199.038 17.7567 198.797 18.2442C198.561 18.7318 198.443 19.2915 198.443 19.9234V27.4457H197.544Z" fill="white"/>
<path d="M189.956 27.6845C188.933 27.6845 188.044 27.4283 187.287 26.9159C186.53 26.4035 185.945 25.702 185.532 24.8114C185.119 23.9209 184.912 22.9059 184.912 21.7666C184.912 20.6224 185.119 19.6025 185.532 18.7069C185.95 17.8114 186.522 17.1049 187.25 16.5875C187.977 16.0701 188.808 15.8114 189.742 15.8114C190.376 15.8114 190.976 15.9408 191.541 16.1995C192.112 16.4532 192.613 16.8214 193.046 17.304C193.483 17.7865 193.825 18.3686 194.071 19.0502C194.321 19.7318 194.447 20.498 194.447 21.3487V21.9159H185.48V21.0875H193.547C193.547 20.2567 193.38 19.5079 193.046 18.8413C192.711 18.1746 192.257 17.6447 191.681 17.2517C191.106 16.8587 190.46 16.6622 189.742 16.6622C188.99 16.6622 188.319 16.8761 187.729 17.304C187.144 17.7268 186.68 18.299 186.335 19.0204C185.996 19.7418 185.819 20.5477 185.804 21.4383V21.8114C185.804 22.7666 185.969 23.6248 186.299 24.386C186.633 25.1423 187.11 25.7418 187.729 26.1845C188.348 26.6224 189.091 26.8413 189.956 26.8413C190.575 26.8413 191.104 26.7368 191.541 26.5278C191.984 26.3139 192.345 26.0552 192.625 25.7517C192.906 25.4482 193.117 25.1547 193.259 24.8711L194.078 25.2069C193.906 25.59 193.638 25.9731 193.274 26.3562C192.915 26.7343 192.458 27.0502 191.903 27.304C191.352 27.5577 190.703 27.6845 189.956 27.6845Z" fill="white"/>
<path d="M176.853 27.6845C175.943 27.6845 175.149 27.4308 174.471 26.9234C173.792 26.4159 173.266 25.7169 172.893 24.8263C172.524 23.9308 172.34 22.9035 172.34 21.7443C172.34 20.595 172.527 19.5751 172.9 18.6845C173.279 17.789 173.807 17.0875 174.486 16.5801C175.164 16.0676 175.955 15.8114 176.86 15.8114C177.509 15.8114 178.072 15.9383 178.549 16.192C179.03 16.4408 179.433 16.7716 179.758 17.1845C180.087 17.5975 180.338 18.0502 180.51 18.5428H180.599V12.1622H181.491V27.4457H180.621V24.9457H180.51C180.328 25.4383 180.075 25.8935 179.751 26.3114C179.426 26.7243 179.023 27.0577 178.541 27.3114C178.059 27.5602 177.497 27.6845 176.853 27.6845ZM176.934 26.8413C177.701 26.8413 178.357 26.6199 178.903 26.1771C179.453 25.7293 179.873 25.1224 180.163 24.3562C180.458 23.585 180.606 22.7119 180.606 21.7368C180.606 20.7617 180.458 19.8935 180.163 19.1323C179.873 18.3661 179.453 17.7642 178.903 17.3263C178.357 16.8836 177.701 16.6622 176.934 16.6622C176.157 16.6622 175.491 16.886 174.935 17.3338C174.385 17.7766 173.962 18.3811 173.667 19.1472C173.377 19.9134 173.232 20.7766 173.232 21.7368C173.232 22.697 173.377 23.5627 173.667 24.3338C173.962 25.1049 174.385 25.7169 174.935 26.1696C175.491 26.6174 176.157 26.8413 176.934 26.8413Z" fill="white"/>
<path d="M164.571 27.692C163.918 27.692 163.318 27.5602 162.772 27.2965C162.232 27.0328 161.796 26.6472 161.467 26.1398C161.143 25.6323 160.98 25.0154 160.98 24.289C160.98 23.8114 161.064 23.391 161.231 23.0278C161.398 22.6646 161.656 22.3512 162.005 22.0875C162.354 21.8239 162.802 21.6074 163.347 21.4383C163.893 21.2642 164.544 21.1298 165.301 21.0353C165.877 20.9656 166.39 20.8985 166.843 20.8338C167.295 20.7642 167.649 20.6572 167.904 20.5129C168.165 20.3686 168.295 20.1497 168.295 19.8562V19.3786C168.295 18.5428 168.035 17.8786 167.514 17.386C166.993 16.8935 166.275 16.6472 165.36 16.6472C164.549 16.6472 163.866 16.8288 163.311 17.192C162.76 17.5502 162.374 18.0129 162.153 18.5801L161.305 18.2592C161.521 17.7119 161.833 17.2567 162.241 16.8935C162.654 16.5303 163.126 16.2592 163.657 16.0801C164.193 15.901 164.753 15.8114 165.338 15.8114C165.845 15.8114 166.326 15.8836 166.784 16.0278C167.246 16.1721 167.656 16.391 168.015 16.6845C168.379 16.9781 168.666 17.3537 168.878 17.8114C169.089 18.2642 169.195 18.8064 169.195 19.4383V27.4457H168.295V25.3786H168.229C168.032 25.8064 167.762 26.197 167.418 26.5502C167.079 26.8985 166.668 27.1771 166.186 27.386C165.71 27.59 165.171 27.692 164.571 27.692ZM164.66 26.8487C165.368 26.8487 165.995 26.6746 166.54 26.3263C167.091 25.9731 167.521 25.4905 167.831 24.8786C168.14 24.2666 168.295 23.5726 168.295 22.7965V21.1099C168.182 21.2094 168.018 21.299 167.801 21.3786C167.59 21.4532 167.349 21.5204 167.079 21.5801C166.813 21.6348 166.533 21.6845 166.238 21.7293C165.948 21.7691 165.665 21.8064 165.39 21.8413C164.564 21.9408 163.891 22.095 163.37 22.304C162.853 22.5079 162.475 22.7766 162.234 23.1099C161.998 23.4433 161.88 23.8462 161.88 24.3189C161.88 25.1 162.145 25.7169 162.676 26.1696C163.207 26.6224 163.869 26.8487 164.66 26.8487Z" fill="white"/>
<path d="M154.3 27.6845C153.336 27.6845 152.488 27.4283 151.756 26.9159C151.023 26.3985 150.451 25.692 150.038 24.7965C149.63 23.901 149.426 22.886 149.426 21.7517C149.426 20.6174 149.632 19.6025 150.045 18.7069C150.458 17.8114 151.031 17.1049 151.763 16.5875C152.496 16.0701 153.339 15.8114 154.292 15.8114C155.01 15.8114 155.664 15.9607 156.254 16.2592C156.849 16.5577 157.34 16.9731 157.729 17.5054C158.122 18.0378 158.373 18.6547 158.481 19.3562H157.566C157.419 18.5801 157.05 17.9383 156.46 17.4308C155.875 16.9184 155.155 16.6622 154.3 16.6622C153.533 16.6622 152.85 16.8811 152.25 17.3189C151.65 17.7517 151.178 18.3512 150.834 19.1174C150.49 19.8786 150.318 20.7517 150.318 21.7368C150.318 22.7069 150.485 23.5776 150.819 24.3487C151.154 25.1149 151.621 25.7219 152.22 26.1696C152.82 26.6174 153.513 26.8413 154.3 26.8413C154.855 26.8413 155.362 26.7293 155.819 26.5054C156.281 26.2816 156.667 25.9632 156.976 25.5502C157.286 25.1373 157.49 24.6547 157.588 24.1025H158.503C158.395 24.8089 158.149 25.4308 157.765 25.9681C157.382 26.5054 156.893 26.9258 156.298 27.2293C155.703 27.5328 155.037 27.6845 154.3 27.6845Z" fill="white"/>
<path d="M136.566 27.4457H135.592L141.042 12.1622H142.103L147.553 27.4457H146.579L141.609 13.3637H141.536L136.566 27.4457ZM137.945 21.692H145.2V22.5577H137.945V21.692Z" fill="white"/>
<path d="M119.48 18.9347C119.48 18.2342 119.708 17.6948 120.165 17.3165C120.622 16.9383 121.3 16.7491 122.2 16.7491V17.989C121.992 18.2132 121.819 18.4514 121.681 18.7035L121.826 18.7876C122.241 18.1431 122.767 17.6458 123.404 17.2955C124.055 16.9313 124.775 16.7491 125.564 16.7491C126.256 16.7491 126.865 16.9103 127.391 17.2325C127.931 17.5547 128.353 18.003 128.658 18.5774C128.962 19.1378 129.114 19.7683 129.114 20.4688V25.9537C129.114 26.5561 128.879 26.9904 128.408 27.2566C127.938 27.5088 127.225 27.6349 126.27 27.6349V20.9101C126.27 20.4338 126.117 20.0345 125.813 19.7122C125.522 19.39 125.107 19.2289 124.567 19.2289C123.902 19.2289 123.363 19.4461 122.947 19.8804C122.532 20.3147 122.324 20.8611 122.324 21.5195V25.9537C122.324 26.5561 122.089 26.9904 121.618 27.2566C121.161 27.5088 120.449 27.6349 119.48 27.6349V18.9347Z" fill="#01CBFB"/>
<path d="M111.632 27.6349C110.953 27.6349 110.316 27.5018 109.721 27.2356C109.14 26.9554 108.669 26.5561 108.309 26.0377C107.949 25.5054 107.769 24.8679 107.769 24.1254C107.769 23.3829 107.963 22.7454 108.351 22.213C108.738 21.6666 109.251 21.2533 109.887 20.9731C110.538 20.6929 111.244 20.5528 112.005 20.5528C112.642 20.5528 113.203 20.6509 113.687 20.8471C114.186 21.0432 114.649 21.3304 115.079 21.7087L115.182 21.5826C114.892 21.3164 114.663 21.1273 114.497 21.0152V20.742C114.497 20.2096 114.303 19.7893 113.916 19.4811C113.542 19.1589 113.009 18.9977 112.317 18.9977C111.708 18.9977 111.168 19.1098 110.697 19.334C110.226 19.5581 109.846 19.8874 109.555 20.3217C109.223 20.2376 108.939 20.0835 108.704 19.8594C108.482 19.6212 108.372 19.362 108.372 19.0818C108.372 18.6475 108.558 18.2552 108.932 17.905C109.306 17.5407 109.811 17.2605 110.448 17.0644C111.099 16.8542 111.812 16.7491 112.587 16.7491C114.096 16.7491 115.258 17.0994 116.075 17.7999C116.892 18.5004 117.3 19.4531 117.3 20.6579V25.7645C117.3 26.423 117.086 26.8994 116.657 27.1936C116.241 27.4878 115.577 27.6349 114.663 27.6349V26.8153C114.871 26.6192 115.037 26.444 115.162 26.2899L115.058 26.1848C114.601 26.6612 114.123 27.0254 113.625 27.2776C113.127 27.5158 112.462 27.6349 111.632 27.6349ZM112.421 25.5754C113.085 25.5754 113.604 25.4493 113.978 25.1971C114.352 24.945 114.539 24.5807 114.539 24.1044C114.539 23.642 114.345 23.2778 113.957 23.0116C113.583 22.7454 113.071 22.6123 112.421 22.6123C111.839 22.6123 111.375 22.7454 111.029 23.0116C110.697 23.2778 110.531 23.642 110.531 24.1044C110.531 24.5807 110.697 24.945 111.029 25.1971C111.375 25.4493 111.839 25.5754 112.421 25.5754Z" fill="#01CBFB"/>
<path d="M105.579 19.2289C104.748 19.2289 104.077 19.4461 103.565 19.8804C103.053 20.3147 102.796 20.8611 102.796 21.5195V25.9537C102.796 26.5561 102.561 26.9904 102.09 27.2566C101.634 27.5088 100.921 27.6349 99.9517 27.6349V18.9347C99.9517 18.2342 100.18 17.6948 100.637 17.3165C101.094 16.9383 101.772 16.7491 102.672 16.7491V17.989C102.464 18.2132 102.291 18.4514 102.153 18.7035L102.298 18.7876C103.17 17.4286 104.257 16.7491 105.558 16.7491C106.181 16.7491 106.652 16.9173 106.97 17.2535C107.289 17.5897 107.448 18.017 107.448 18.5354C107.448 18.9277 107.344 19.2709 107.136 19.5651C106.749 19.341 106.23 19.2289 105.579 19.2289Z" fill="#01CBFB"/>
<path d="M90.3837 31.8379C89.8023 31.8379 89.3455 31.6277 89.0132 31.2074C88.681 30.8011 88.5149 30.1987 88.5149 29.4001C88.9163 29.4842 89.2832 29.5262 89.6154 29.5262C89.9615 29.5262 90.2453 29.4702 90.4668 29.3581C90.6883 29.26 90.8959 29.0709 91.0897 28.7907C91.2974 28.5105 91.5258 28.0902 91.775 27.5298L92.0864 26.8153L88.0996 16.9803C88.1965 16.9103 88.3765 16.8542 88.6395 16.8122C88.9163 16.7702 89.1448 16.7491 89.3247 16.7491C89.7538 16.7491 90.1484 16.8402 90.5083 17.0223C90.8821 17.2045 91.1312 17.4637 91.2558 17.7999L93.2908 23.2848L92.9378 24.3145L93.1247 24.3776L95.658 17.7999C95.7964 17.4496 96.0387 17.1905 96.3847 17.0223C96.7447 16.8402 97.1461 16.7491 97.5891 16.7491C97.7691 16.7491 97.9905 16.7702 98.2536 16.8122C98.5304 16.8542 98.7173 16.9103 98.8142 16.9803L94.1837 28.3704C93.6992 29.5612 93.1593 30.4369 92.564 30.9973C91.9826 31.5577 91.2558 31.8379 90.3837 31.8379Z" fill="#01CBFB"/>
<path d="M72.9616 18.9347C72.9616 18.2342 73.1831 17.6948 73.6261 17.3165C74.0691 16.9383 74.7404 16.7491 75.6403 16.7491V17.989C75.4326 18.2132 75.2596 18.4514 75.1211 18.7035L75.2665 18.7876C75.7095 18.1151 76.1663 17.6108 76.637 17.2745C77.1215 16.9243 77.696 16.7491 78.3604 16.7491C79.5371 16.7491 80.3539 17.3446 80.8107 18.5354C81.1568 17.975 81.5997 17.5407 82.1396 17.2325C82.6795 16.9103 83.2886 16.7491 83.9669 16.7491C84.9083 16.7491 85.6558 17.0994 86.2095 17.7999C86.7771 18.5004 87.0609 19.39 87.0609 20.4688V25.9537C87.0609 26.5561 86.8325 26.9904 86.3756 27.2566C85.9188 27.5088 85.2128 27.6349 84.2576 27.6349V20.721C84.2576 20.2446 84.1538 19.8664 83.9462 19.5862C83.7385 19.306 83.4132 19.1659 82.9702 19.1659C82.5272 19.1659 82.1535 19.327 81.8489 19.6492C81.5444 19.9574 81.3921 20.4828 81.3921 21.2253V25.9537C81.3921 26.5561 81.1637 26.9904 80.7069 27.2566C80.2639 27.5088 79.5717 27.6349 78.6304 27.6349V20.721C78.6304 20.2446 78.5266 19.8664 78.3189 19.5862C78.1113 19.306 77.7929 19.1659 77.3637 19.1659C76.2978 19.1659 75.7648 19.8874 75.7648 21.3304V25.9537C75.7648 26.5561 75.5364 26.9904 75.0796 27.2566C74.6228 27.5088 73.9168 27.6349 72.9616 27.6349V18.9347Z" fill="#01CBFB"/>
<path d="M63.3936 31.8379C62.8122 31.8379 62.3553 31.6277 62.0231 31.2074C61.6909 30.8011 61.5248 30.1987 61.5248 29.4001C61.9262 29.4842 62.2931 29.5262 62.6253 29.5262C62.9714 29.5262 63.2551 29.4702 63.4766 29.3581C63.6981 29.26 63.9058 29.0709 64.0996 28.7907C64.3072 28.5105 64.5357 28.0902 64.7848 27.5298L65.0963 26.8153L61.1095 16.9803C61.2064 16.9103 61.3863 16.8542 61.6493 16.8122C61.9262 16.7702 62.1546 16.7491 62.3346 16.7491C62.7637 16.7491 63.1583 16.8402 63.5182 17.0223C63.8919 17.2045 64.1411 17.4637 64.2657 17.7999L66.3007 23.2848L65.9477 24.3145L66.1345 24.3776L68.6678 17.7999C68.8063 17.4496 69.0485 17.1905 69.3946 17.0223C69.7545 16.8402 70.156 16.7491 70.599 16.7491C70.7789 16.7491 71.0004 16.7702 71.2634 16.8122C71.5403 16.8542 71.7272 16.9103 71.8241 16.9803L67.1935 28.3704C66.709 29.5612 66.1691 30.4369 65.5739 30.9973C64.9925 31.5577 64.2657 31.8379 63.3936 31.8379Z" fill="#01CBFB"/>
<path d="M49.3199 27.4457C48.8908 27.4457 48.5517 27.3267 48.3025 27.0885C48.0533 26.8503 47.9287 26.5351 47.9287 26.1428C47.9287 25.7786 48.0256 25.4773 48.2194 25.2392L57.3144 14.5636L57.1067 14.3955L56.2346 15.3622H50.5866C49.8806 15.3622 49.3407 15.138 48.9669 14.6897C48.607 14.2414 48.4271 13.5899 48.4271 12.7353H59.5777C60.0207 12.7353 60.3599 12.8474 60.5952 13.0715C60.8444 13.2957 60.969 13.6179 60.969 14.0382C60.969 14.4025 60.8721 14.7037 60.6783 14.9419L51.6871 25.6174L51.8948 25.7856L52.7461 24.8189H58.8717C59.5639 24.8189 60.0899 25.043 60.4499 25.4914C60.8236 25.9397 61.0105 26.5911 61.0105 27.4457H49.3199Z" fill="#01CBFB"/>
</svg>
