<svg width="146" height="267" viewBox="0 0 146 267" fill="none" xmlns="http://www.w3.org/2000/svg">
<path fill-rule="evenodd" clip-rule="evenodd" d="M19.5028 267C14.49 264.363 3.60156 252.191 3.60156 226.579C3.60156 207.259 15.4972 196.987 25.0938 188.7C31.3998 183.255 36.7132 178.667 37.0065 172.932C27.7205 173.921 9.45545 171.814 3.60156 158.099C-3.07 142.467 0.855479 130.441 4.73723 118.549C8.52955 106.931 12.2801 95.4411 6.06686 80.8417C15.2296 82.0366 31.7061 89.8406 24.3101 111.497C31.0076 111.044 44.2298 113.524 43.5395 127.072C42.8493 140.62 36.7599 143.348 33.8016 143.018C33.3907 138.197 30.6706 129.347 23.0775 132.511C13.586 136.467 13.8326 157.357 32.9387 157.11C52.0449 156.863 60.1568 134.555 54.2636 120.15C45.121 97.8023 33.303 85.0742 23.2547 74.252C11.6269 61.7287 2.36888 51.7577 2.36888 32.3861C2.36888 10.8778 14.942 1.73056 19.0097 -8.30941e-07L126.99 -5.55092e-06C131.058 1.73055 143.631 10.8778 143.631 32.3861C143.631 51.7577 134.373 61.7287 122.745 74.252C112.697 85.0742 100.879 97.8023 91.7363 120.15C85.8431 134.555 93.9551 156.862 113.061 157.11C132.167 157.357 132.414 136.467 122.923 132.511C115.329 129.347 112.609 138.197 112.198 143.018C109.24 143.348 103.151 140.62 102.46 127.072C101.77 113.524 114.992 111.044 121.69 111.497C114.294 89.8406 130.77 82.0366 139.933 80.8417C133.72 95.441 137.47 106.931 141.263 118.549C145.145 130.441 149.07 142.467 142.398 158.099C136.545 171.814 118.279 173.921 108.993 172.932C109.287 178.667 114.6 183.255 120.906 188.7C130.503 196.987 142.398 207.259 142.398 226.579C142.398 252.191 131.51 264.363 126.497 267L19.5028 267ZM73 176.022C83.7487 180.571 82.5736 200.25 80.6425 209.521C85.6552 206.678 98.3434 204.478 108.993 218.421C122.306 235.85 95.9274 249.447 97.2833 246.233C98.6392 243.019 97.2833 238.569 93.2155 234.614C89.1478 230.658 81.9984 238.322 81.9984 244.132C81.9984 249.942 92.5992 266.506 112.198 253.65C131.798 240.794 127.36 222.871 117.745 211.499C116.772 210.347 115.594 209.016 114.262 207.511C102.431 194.141 78.4097 166.997 77.191 129.668C76.3771 104.736 92.5753 85.7283 106.801 69.0351C116.274 57.9195 124.872 47.8302 126.99 37.7014C132.291 12.3611 112.815 7.54028 98.7625 7.54028C84.7102 7.54028 81.9984 16.3167 81.9984 23.6097C81.9984 30.9028 92.7225 36.5889 97.2833 36.5889C100.932 36.5889 103.323 30.6556 104.063 27.6889C106.364 29.2958 110.349 35.2786 107.884 46.3542C105.419 57.4297 90.0928 55.1718 82.738 52.6583C82.4093 52.3699 81.8011 55.3036 81.9984 69.3458C82.1956 83.3881 76.0816 89.6181 73 90.9778C69.9184 89.6181 63.8044 83.3881 64.0016 69.3458C64.1988 55.3036 63.5907 52.3699 63.262 52.6583C55.9072 55.1718 40.5812 57.4297 38.1159 46.3542C35.6506 35.2786 39.6361 29.2958 41.9371 27.6889C42.6767 30.6556 45.068 36.5889 48.7167 36.5889C53.2775 36.5889 64.0016 30.9028 64.0016 23.6097C64.0016 16.3167 61.2898 7.54028 47.2375 7.54028C33.1852 7.54028 13.7093 12.3611 19.0097 37.7014C21.1284 47.8302 29.7264 57.9195 39.1989 69.0351C53.4247 85.7283 69.6229 104.736 68.809 129.668C67.5903 166.997 43.5694 194.141 31.7383 207.511C30.4058 209.016 29.2279 210.347 28.2546 211.499C18.6399 222.871 14.2024 240.794 33.8016 253.65C53.4008 266.506 64.0016 249.942 64.0016 244.132C64.0016 238.322 56.8522 230.658 52.7845 234.614C48.7167 238.569 47.3608 243.019 48.7167 246.233C50.0726 249.447 23.6938 235.85 37.0065 218.421C47.6566 204.478 60.3447 206.678 65.3575 209.521C63.4264 200.25 62.2513 180.571 73 176.022Z" fill="#EEEEEE"/>
</svg>
